<svg width="24" height="24" viewBox="30 86 24 24" fill="white" xmlns="http://www.w3.org/2000/svg">
  <path d="M49 110C48.8 110 48.7 110 48.5 109.9L42 106.2L35.5 109.9C35.2 110.1 34.8 110.1 34.4 109.9C34.1 109.7 33.9 109.3 34 108.9L34.9 101.4L30.2 96.7C29.9 96.4 29.8 96 30 95.7C30.1 95.3 30.4 95.1 30.8 95L37.3 94.1L41.1 87.5C41.5 86.9 42.5 86.9 42.8 87.5L46.6 94.1L53.1 95C53.5 95.1 53.8 95.3 53.9 95.7C54 96.1 53.9 96.5 53.7 96.7L49 101.4L49.9 108.9C49.9 109.3 49.8 109.6 49.5 109.9C49.4 109.9 49.2 110 49 110Z"/>
</svg>
