<?xml version="1.0" encoding="UTF-8"?>
<svg width="16" height="16" viewBox="0 0 16 16" xmlns="http://www.w3.org/2000/svg">
  <g fill="white" transform="scale(1.05) translate(1, 0)">
    <path d="M13.85,14 C13.85,12 12.14,10.16 10.69,9 
             C10.1713637,8.56974515 9.58285176,8.23151987 8.95,8 
             C10.2421552,7.61544216 11.1285474,6.42816452 11.13,5.08 
             L11.13,3.08 
             C11.1301117,2.27561122 10.8071869,1.5048732 10.233717,0.940804427 
             C9.66024704,0.376735656 8.88427706,0.0665935124 8.08,0.08 
             L6,0.08 
             C4.34284341,0.107135952 3.0106459,1.45265544 3,3.11 
             L3,5.11 
             C2.98704199,6.46936789 3.88977981,7.66754719 5.2,8.03 
             C4.58344447,8.26333448 4.00664081,8.5905272 3.49,9 
             C2,10.13 0.28,12 0.27,14 
             L0.27,14.14 
             C0.27,14.62 3.68,15.95 7.06,15.95 
             C10.44,15.95 13.85,14.62 13.85,14.14 
             L13.85,14 Z 
             M6.85,14.42 
             C6.65679006,14.5515978 6.40720036,14.5673831 6.19895043,14.4611756 
             C5.9907005,14.3549682 5.85692507,14.1436667 5.85,13.91 
             L5.85,10.28 
             C5.85692507,10.0463333 5.9907005,9.83503183 6.19895043,9.72882437 
             C6.40720036,9.6226169 6.65679006,9.6384022 6.85,9.77 
             L10,12.1 L6.85,14.42 Z"/>
  </g>
</svg>
